<?xml version="1.0" encoding="UTF-8" standalone="no"?>
<!-- Created with Inkscape (http://www.inkscape.org/) -->

<svg
   xmlns:dc="http://purl.org/dc/elements/1.1/"
   xmlns:cc="http://creativecommons.org/ns#"
   xmlns:rdf="http://www.w3.org/1999/02/22-rdf-syntax-ns#"
   xmlns:svg="http://www.w3.org/2000/svg"
   xmlns="http://www.w3.org/2000/svg"
   xmlns:sodipodi="http://sodipodi.sourceforge.net/DTD/sodipodi-0.dtd"
   xmlns:inkscape="http://www.inkscape.org/namespaces/inkscape"
   width="295.12161"
   height="426.7373"
   id="svg2"
   version="1.1"
   inkscape:version="0.48.4 r9939"
   sodipodi:docname="cryingcalvin.svg">
  <defs
     id="defs4" />
  <sodipodi:namedview
     id="base"
     pagecolor="#ffffff"
     bordercolor="#666666"
     borderopacity="1.0"
     inkscape:pageopacity="0.0"
     inkscape:pageshadow="2"
     inkscape:zoom="0.98994949"
     inkscape:cx="20.185045"
     inkscape:cy="58.414614"
     inkscape:document-units="px"
     inkscape:current-layer="layer1"
     showgrid="false"
     inkscape:window-width="1920"
     inkscape:window-height="1003"
     inkscape:window-x="-9"
     inkscape:window-y="-9"
     inkscape:window-maximized="1"
     fit-margin-top="0"
     fit-margin-left="0"
     fit-margin-right="0"
     fit-margin-bottom="0" />
  <metadata
     id="metadata7">
    <rdf:RDF>
      <cc:Work
         rdf:about="">
        <dc:format>image/svg+xml</dc:format>
        <dc:type
           rdf:resource="http://purl.org/dc/dcmitype/StillImage" />
        <dc:title></dc:title>
      </cc:Work>
    </rdf:RDF>
  </metadata>
  <g
     inkscape:label="Ebene 1"
     inkscape:groupmode="layer"
     id="layer1"
     transform="translate(-226.3894,-396.00542)">
    <path
       style="fill:#ffffff;fill-opacity:1"
       d="m 393.8894,822.05255 c -1.1,-0.4986 -6.99052,-0.9382 -13.09004,-0.9768 -11.86086,-0.075 -23.02822,-2.261 -31.54355,-6.1739 -3.74263,-1.7198 -5.03062,-3.0202 -6.69842,-6.7628 -3.27082,-7.3399 -3.42049,-8.7744 -1.39357,-13.3565 1.81081,-4.0936 8.19591,-10.7771 10.29591,-10.7771 1.51755,0 4.92967,-8.70942 4.92967,-12.58294 0,-4.25946 -0.94835,-4.30272 -9.16021,-0.41788 -3.48689,1.64957 -6.86767,2.99957 -7.51287,3 -2.45215,0.002 -7.5842,-6.57579 -11.49676,-14.73472 -4.55834,-9.50557 -4.78023,-14.37218 -0.87442,-19.17791 3.02718,-3.72468 5.99739,-10.183 6.01857,-13.08658 0.0136,-1.86062 -1.51532,-3.73941 -5.97804,-7.34616 -4.63496,-3.74595 -5.99627,-5.45542 -5.99627,-7.52986 0,-4.18105 2.90273,-26.84844 4.43386,-34.62398 0.75813,-3.85 1.69297,-10.15 2.07742,-14 0.78753,-7.88655 2.47012,-11.88449 5.73776,-13.63328 2.16881,-1.16071 2.13399,-1.22161 -1.30316,-2.27965 -9.29765,-2.86201 -25.55473,-15.91439 -34.88516,-28.00836 l -4.32595,-5.60724 -6.23925,0.63923 c -12.42035,1.27251 -25.26965,-2.71067 -30.15284,-9.34712 -5.07607,-6.89858 -3.50262,-22.75652 3.20861,-32.3379 2.09022,-2.98412 4.90174,-6.63321 6.24783,-8.10907 1.99247,-2.18457 2.31956,-3.29993 1.75957,-6 -0.37832,-1.82414 -0.92896,-5.22721 -1.22363,-7.56238 l -0.53577,-4.24577 -3.68425,0.58913 c -2.75826,0.44107 -4.61805,0.0382 -7.39964,-1.603 -4.42034,-2.60806 -4.93519,-6.04915 -1.4654,-9.79415 l 2.25,-2.42846 -4.15931,0.68659 c -4.52433,0.74684 -10.34069,-1.40006 -10.34069,-3.81689 0,-1.51661 6.03194,-6.57385 10.75,-9.01291 4.10252,-2.12085 4.08318,-2.92571 -0.10669,-4.44079 -4.15771,-1.50345 -6.9338,-4.45289 -6.46017,-6.86358 0.28707,-1.4611 1.25039,-1.80347 4.83765,-1.71929 2.46357,0.0578 5.49171,0.44779 6.72921,0.86663 1.71951,0.58198 2.25,0.38037 2.25,-0.85511 0,-0.88915 -0.42449,-1.61663 -0.94332,-1.61663 -0.51883,0 -2.07199,-1.8927 -3.45148,-4.206 -3.02404,-5.07111 -2.1492,-6.794 3.44986,-6.794 4.47354,0 4.56802,-0.20006 5.43093,-11.5 1.44182,-18.88102 3.94082,-29.89925 7.39887,-32.62214 4.56997,-3.59843 7.92218,-2.41202 12.25266,4.33644 l 3.23195,5.03657 8.26576,-16.87544 c 11.9544,-24.40618 20.00039,-36.37543 24.45236,-36.37543 2.02806,0 4.22431,5.07986 6.47551,14.97762 0.87846,3.86231 1.85145,7.02238 2.1622,7.02238 0.31074,0 2.5021,-1.22551 4.86968,-2.72335 3.58152,-2.26584 4.41383,-3.39982 4.95431,-6.75 1.54681,-9.58785 7.3545,-18.33865 14.66747,-22.10039 3.69369,-1.9 6.26219,-2.42626 11.84184,-2.42626 8.16592,0 8.84033,0.37412 20.15282,11.17941 3.84611,3.67367 7.50945,6.51077 8.14076,6.30465 13.16279,-4.29749 19.93878,-5.44033 21.10151,-3.559 1.08542,1.75625 -1.75478,6.01132 -5.84772,8.76082 -2.25828,1.51704 -5.30651,3.72317 -6.77383,4.90251 l -2.66786,2.14425 3.76615,1.12837 c 4.01518,1.20298 15.78918,0.2021 22.98532,-1.95392 2.05441,-0.61551 7.85179,-0.95891 12.88307,-0.7631 7.6204,0.29657 9.49269,0.70109 11.21343,2.42273 1.1361,1.1367 1.81639,2.7117 1.51175,3.5 -0.31564,0.81678 -5.06386,2.68023 -11.03894,4.33226 -5.76678,1.59444 -10.48506,3.07149 -10.48506,3.28233 0,0.21085 3.95553,4.9813 8.79006,10.60102 7.80941,9.07774 15.20994,19.29657 15.20994,21.00225 0,0.33521 1.51237,3.89581 3.36081,7.91245 4.71941,10.25517 9.31797,26.61694 10.62473,37.80297 1.77721,15.21328 1.59826,14.75389 6.0395,15.50423 9.02599,1.52493 15.33517,9.56142 18.05321,22.99577 1.03322,5.10686 0.96999,6.83783 -0.42475,11.62841 -1.37259,4.71449 -2.70191,6.62301 -8.18663,11.7537 -6.17418,5.77565 -14.71697,11.11789 -17.77864,11.11789 -1.75335,0 -4.68823,3.20399 -4.68823,5.11811 0,0.80335 -2.81684,4.59292 -6.25965,8.42126 -3.44281,3.82835 -7.8913,8.98563 -9.88555,11.46063 -1.99424,2.475 -7.05239,8.01541 -11.24034,12.31202 -5.92046,6.07406 -7.61446,8.45371 -7.61446,10.69642 0,3.63918 5.3203,12.70655 12.02346,20.49156 5.4178,6.29219 19.84198,27.35655 23.08361,33.71016 2.27653,4.46202 2.44002,9.0999 0.39293,11.14698 -2.61762,2.61763 -1.20893,18.40958 2.51252,28.16616 0.62447,1.63719 1.28848,8.50903 1.47557,15.27077 0.19229,6.94969 0.81832,12.8702 1.44009,13.61939 0.64698,0.77957 4.07963,1.52065 8.33587,1.79964 15.09878,0.98972 38.50677,10.59491 44.55341,18.28197 2.86385,3.64076 3.11568,14.92216 0.43164,19.33576 -5.24667,8.6274 -17.07127,12.9927 -38.74601,14.3037 -14.66486,0.8871 -15.26235,1.0136 -26.50309,5.6132 l -11.5,4.7057 -23.5,0.2501 c -12.925,0.1376 -24.4,-0.1578 -25.5,-0.6564 z m 43.85566,-9.5712 c 12.67838,-3.1446 18.68524,-7.5983 18.62238,-13.807 -0.0443,-4.3725 -3.60702,-10.265 -7.25231,-11.9948 -5.14532,-2.4416 -7.8853,-2.0782 -12.29573,1.6309 -6.00175,5.0474 -10.0735,7.695 -11.83437,7.695 -2.3555,0 -2.04347,-5.5624 0.51346,-9.1532 2.37291,-3.3325 2.04459,-4.3478 -1.08475,-3.3546 -3.68819,1.1706 -7.96425,6.2544 -9.22474,10.9672 -0.93933,3.5121 -1.67708,4.5395 -3.257,4.536 -4.82222,-0.011 -52.03803,-4.0179 -53.75221,-4.562 -2.59879,-0.8248 -4.79039,1.2649 -4.79039,4.5677 0,2.0708 0.68384,3.0325 2.75,3.867 4.43824,1.7928 32.0124,8.2273 41.25,9.6259 12.25134,1.8548 32.84211,1.8456 40.35566,-0.018 z m 53.37999,-11.5636 c 12.77169,-2.9156 15.09576,-3.9035 17.20228,-7.3119 4.13555,-6.6915 2.17126,-11.9912 -5.9743,-16.11886 -3.61345,-1.83107 -6.48707,-2.48157 -10.9625,-2.48157 -7.03977,0 -11.12854,1.51491 -15.97199,5.91773 -4.4335,4.0301 -7.53721,4.8374 -10.00642,2.6028 -2.19695,-1.9882 -4.02272,-1.2719 -4.02272,1.5783 0,2.8448 3.77026,9.8299 7.36002,13.6357 2.92876,3.105 3.43701,3.2655 10.34567,3.2655 3.99609,0 9.40957,-0.4895 12.02996,-1.0877 z m -84.35434,-13.3456 c 3.12911,-4.1025 3.29935,-5.5667 0.6472,-5.5667 -2.15554,0 -12.54936,4.3574 -14.74974,6.1836 -2.09316,1.7371 0.27858,2.7829 6.35254,2.8011 4.6781,0.014 5.3626,-0.288 7.75,-3.418 z m 48.07389,-13.18791 c 0.89032,-0.34165 2.3016,-1.94163 3.13617,-3.55552 l 1.51741,-2.93433 -3.80439,0.59989 c -5.49715,0.86681 -11.30439,2.70995 -11.30439,3.58787 0,1.77594 7.51452,3.43053 10.4552,2.30209 z M 344.6821,761.12807 c 2.86401,-2.13255 6.28441,-5.04283 7.60088,-6.46729 2.31463,-2.50451 2.35271,-2.79719 1.15426,-8.87265 -0.68163,-3.45549 -1.81233,-7.85771 -2.51265,-9.78271 -0.70033,-1.925 -1.58288,-5.75 -1.96122,-8.5 -0.96891,-7.04257 -1.50753,-8.5 -3.14136,-8.5 -1.00681,0 -1.45524,1.26317 -1.50875,4.25 -0.0419,2.3375 -0.61654,7.625 -1.27705,11.75 l -1.20091,7.5 -4.45333,0.31875 c -5.03099,0.36011 -6.99257,1.56739 -6.99257,4.30369 0,1.60916 0.78623,1.87756 5.5,1.87756 5.95022,0 6.47982,0.662 4,5 -1.35723,2.37422 -2.10791,11 -0.9573,11 0.29848,0 2.88598,-1.74481 5.75,-3.87735 z m 30.89918,-14.11699 c 3.68053,-0.54007 11.05673,-2.11604 16.39157,-3.50215 5.33483,-1.3861 14.92349,-2.97657 21.30812,-3.53436 14.94195,-1.3054 31.25968,-3.8835 32.85843,-5.19143 0.6875,-0.56243 1.25,-1.85894 1.25,-2.88111 0,-2.47125 -3.76081,-3.33434 -8.63351,-1.98136 -2.12657,0.59048 -6.31792,1.07611 -9.31412,1.07917 -6.7749,0.007 -41.13167,5.5333 -46.55237,7.48805 -2.2,0.79334 -6.25,1.91276 -9,2.4876 -2.75,0.57484 -5.96286,1.26286 -7.1397,1.52892 -2.42608,0.54849 -3.58832,2.74322 -2.69101,5.08158 0.40235,1.04851 1.3175,1.38305 2.71862,0.99381 1.16165,-0.32272 5.12343,-1.02864 8.80397,-1.56872 z m 28.84786,-20.51109 c 22.11723,-3.02201 40.88133,-5.49457 41.69799,-5.49457 1.17369,0 1.33806,-0.78584 0.78438,-3.75 -0.38527,-2.0625 -0.86738,-3.91953 -1.07136,-4.12673 -0.20399,-0.20721 -3.42635,0.10833 -7.16082,0.70118 -25.63263,4.06924 -32.6043,5.24928 -38.93248,6.5898 -3.9284,0.83217 -10.2284,1.99206 -14,2.57752 -9.53469,1.48008 -25.35105,6.26773 -25.35455,7.6749 -0.003,1.23017 2.03466,2.32174 3.16039,1.69296 0.36481,-0.20377 18.75921,-2.84305 40.87645,-5.86506 z M 376.3894,716.45235 c 4.125,-0.77037 12.225,-2.1193 18,-2.99762 5.775,-0.87833 12.975,-2.21707 16,-2.97499 3.025,-0.75792 11.125,-2.33674 18,-3.50848 6.875,-1.17175 12.81844,-2.43435 13.20764,-2.80579 0.3892,-0.37143 -0.29692,-2.47189 -1.52472,-4.66769 -2.74289,-4.90541 -4.88119,-5.26555 -18.54117,-3.12275 -5.30296,0.83186 -12.56675,1.76886 -16.14175,2.08222 -3.575,0.31336 -15.27032,2.7248 -25.9896,5.35875 -17.51557,4.30394 -19.63656,5.05082 -20.94051,7.37398 -1.28726,2.29341 -1.26431,2.86977 0.20348,5.1099 1.85377,2.82921 3.32595,2.84187 17.72663,0.15247 z m -31.14922,-7.54476 c 1.73207,-0.6038 3.14922,-1.74851 3.14922,-2.5438 0,-2.27756 -14.35752,-1.49419 -14.79648,0.80731 -0.50856,2.6664 6.13739,3.65724 11.64726,1.73649 z m 24.02543,-10.89595 c 4.74309,-1.09658 20.92462,-3.98491 35.95896,-6.41851 15.03434,-2.43359 27.57744,-4.66698 27.87354,-4.96309 0.2961,-0.2961 0.25428,-1.27868 -0.0929,-2.18352 -0.56102,-1.462 -2.16123,-1.57158 -14.37354,-0.98426 -7.55823,0.36349 -16.44223,1.26613 -19.74223,2.00587 -3.3,0.73974 -9.6,2.15212 -14,3.13863 -9.03121,2.02486 -22.93719,7.40728 -25.33667,9.80676 -2.1204,2.1204 -0.99552,2.07386 9.71288,-0.40188 z m -24.458,-1.61321 c 2.11695,-0.81235 2.01204,-3.12168 -0.17331,-3.81528 -3.18025,-1.00937 -10.6988,0.82511 -11.05957,2.69847 -0.27845,1.44584 0.47289,1.7238 4.65956,1.7238 2.74534,0 5.70334,-0.27314 6.57332,-0.60699 z m 22.08179,-10.90166 c 5.5,-1.49083 10.78314,-3.12476 11.74031,-3.63097 0.95717,-0.50621 7.93217,-1.79957 15.5,-2.87415 7.56783,-1.07458 16.90969,-2.62827 20.75969,-3.45264 3.85,-0.82437 8.86436,-1.50668 11.14301,-1.51623 4.72266,-0.0198 6.24603,-1.98546 3.594,-4.6375 -1.48958,-1.48957 -3.54586,-1.60749 -18.31052,-1.05004 -13.61539,0.51405 -18.7906,1.16297 -28.52949,3.57729 -12.03405,2.98331 -22.76107,6.79097 -27.05156,9.60221 -2.95929,1.93899 -3.46438,8.05365 -0.59544,7.20829 0.9625,-0.28362 6.25,-1.73543 11.75,-3.22626 z m -25.80576,-3.95975 2.80576,-2.4684 -3.05887,-0.0316 c -1.68238,-0.0174 -3.93238,0.63485 -5,1.4494 -1.68015,1.28188 -1.73946,1.61594 -0.44113,2.48468 2.13604,1.42929 2.56124,1.3222 5.69424,-1.43408 z m 28.00426,-12.9448 c 11.34171,-4.39828 19.49414,-5.78709 37.03902,-6.30978 l 14.23752,-0.42416 -1.96047,-3.67643 c -1.07825,-2.02204 -3.35462,-6.73279 -5.0586,-10.46833 l -3.09813,-6.79191 -6.06413,5.61431 c -10.55514,9.7722 -20.41184,12.98933 -34.53894,11.27318 -9.8543,-1.1971 -12.67192,-0.77376 -22.37491,3.36174 -4.17127,1.77783 -6.87986,4.8935 -6.87986,7.91386 0,1.77139 4.36058,2.7928 12.1985,2.85733 6.46821,0.0533 9.10508,-0.48207 16.5,-3.34981 z m -21.90645,-18.07054 c -0.96843,-0.77761 -10.05788,-1.38962 -9.25165,-0.62292 1.28583,1.22276 4.44601,1.7765 7.25165,1.27067 1.26063,-0.22728 2.16063,-0.51877 2,-0.64775 z m 39.77645,-2.98552 c 2.79885,-0.83388 5.5038,-2.39241 6.25488,-3.60393 1.30439,-2.10404 1.24698,-2.12503 -4,-1.4626 -6.43018,0.8118 -14.82338,3.37835 -14.82338,4.53282 0,2.25362 5.94796,2.50619 12.5685,0.53371 z m -18.5685,-9.51817 c 14.11325,-1.17295 30.28899,-5.1368 39.15319,-9.59444 8.1581,-4.10256 24.2971,-16.84616 32.24925,-25.46451 3.90243,-4.22937 7.2636,-9.2867 9.91951,-14.92527 5.70683,-12.11571 7.68749,-14.02835 14.52728,-14.02835 7.81473,0 13.18007,-3.31607 16.01036,-9.89525 1.17723,-2.73653 2.14041,-6.06244 2.14041,-7.39091 0,-7.46031 -6.11702,-13.55637 -12.29176,-12.24964 -1.76453,0.37342 -4.78324,0.75924 -6.70824,0.85737 -3.32786,0.16965 -3.51135,0.006 -3.7308,-3.32157 -2.65344,-40.2375 -4.7257,-50.02077 -14.14496,-66.77897 -4.52271,-8.04654 -7.88325,-12.57903 -12.87241,-17.36154 -10.03288,-9.6173 -23.02402,-17.23515 -36.50615,-21.40678 l -5.75432,-1.78049 -3.92187,3.1517 c -10.01812,8.05077 -15.13599,6.10724 -10.06949,-3.82392 2.35324,-4.61273 2.63857,-12.53592 0.62499,-17.35509 -1.72202,-4.12139 -9.78917,-9.65121 -14.04643,-9.62846 -4.99575,0.0267 -10.77521,3.94326 -13.553,9.18445 -2.21028,4.17039 -2.34373,5.03032 -1.25,8.05496 1.63572,4.5235 1.61889,13.6877 -0.0256,13.92301 -0.6875,0.0984 -3.275,0.21087 -5.75,0.25 -4.29589,0.0679 -4.60138,0.27214 -6.73518,4.50296 -2.98,5.9086 -3.98961,6.34956 -8.61039,3.76072 -4.73746,-2.65424 -8.65439,-8.1119 -8.65439,-12.05866 0,-3.47464 -2.03062,-10.63389 -3.01615,-10.63389 -2.22911,0 -10.80919,17.33932 -14.84501,30 -2.71188,8.5074 -6.66338,19.42167 -7.55235,20.86006 -1.29893,2.10171 -3.83437,1.17112 -9.12576,-3.34946 -4.50411,-3.84798 -5.35044,-4.24088 -5.92367,-2.75 -0.36783,0.95667 -1.10072,9.8394 -1.62863,19.7394 -0.52792,9.9 -1.62185,21.825 -2.43095,26.5 -2.79285,16.13713 -1.44943,25.42389 5.52998,38.2274 6.31665,11.58772 5.41016,14.81242 -5.1499,18.31991 -2.97424,0.98788 -6.05612,3.03695 -8.29504,5.51517 -3.15241,3.48933 -3.56252,4.56205 -3.56252,9.31828 0,7.05419 2.03385,11.55093 6.60951,14.61326 5.05605,3.38384 10.47772,3.10258 17.59234,-0.91266 3.59206,-2.02724 6.83692,-3.08136 9.4852,-3.08136 l 4.02534,0 4.5285,10.25 c 7.71849,17.47033 19.40052,27.23354 36.24984,30.29566 8.7629,1.59254 13.08326,1.66587 27.50927,0.46691 z m -25.5,-12.35884 c -8.98135,-3.35612 -20.04924,-10.33594 -24.63666,-15.53679 -4.81463,-5.45843 -12.81954,-18.83291 -12.84528,-21.4617 -0.01,-1.01462 -0.98486,-5.02773 -2.16649,-8.91802 -1.94935,-6.41779 -2.08803,-8.47085 -1.49654,-22.15523 0.99897,-23.11183 3.76471,-33.82118 13.20883,-51.14666 5.2082,-9.55457 11.69961,-17.1247 20.76551,-24.21624 27.16944,-21.25253 54.02845,-26.58936 77.17063,-15.33366 17.03223,8.284 28.06265,23.86289 34.62197,48.89862 2.95734,11.28763 3.0489,12.26434 2.50442,26.71595 -0.71706,19.03206 -2.38249,26.55193 -8.63918,39.00822 -4.09941,8.16141 -6.65601,11.69236 -13.85479,19.135 -4.85526,5.01973 -10.73796,10.3909 -13.07267,11.93594 -4.01982,2.66019 -5.02784,2.84315 -19.00944,3.45027 l -14.76452,0.64113 -10.6079,5.66472 c -12.31595,6.57683 -16.94541,7.14209 -27.17789,3.31845 z m 23.22451,-9.71981 c 11.62858,-6.04684 18.78088,-7.89933 30.57515,-7.91914 9.51024,-0.016 12.09312,-0.88223 19.14003,-6.41923 10.12027,-7.95184 18.05606,-19.88724 23.1199,-34.77224 7.39554,-21.73895 5.16874,-46.35084 -6.26073,-69.19735 -10.25474,-20.49831 -23.24793,-28.62596 -45.76264,-28.62596 -6.81723,0 -9.90793,0.56145 -16.70078,3.03383 -7.94935,2.89331 -20.77355,8.73005 -21.83544,9.93807 -0.275,0.31284 -1.80917,1.14515 -3.40926,1.84958 -1.60009,0.70442 -6.32509,4.90472 -10.5,9.33399 -22.46514,23.83389 -30.76311,55.12273 -23.16423,87.34453 2.2116,9.3779 3.19439,11.64035 8.73193,20.10137 3.34423,5.10978 11.98135,12.64111 18.10555,15.78752 2.81432,1.44591 13.19878,4.205 16.97702,4.5107 0.68256,0.0552 5.62513,-2.17933 10.9835,-4.96567 z m -7.63216,-21.71443 c -7.51189,-5.16683 -11.09235,-12.00552 -11.09235,-21.18642 0,-5.81665 0.40711,-7.30481 3.11801,-11.39751 3.60669,-5.44512 7.87975,-7.63556 14.89523,-7.63556 4.0904,0 5.45777,0.56917 9.60955,4 6.10763,5.04705 8.37721,5.2245 8.37721,0.65499 0,-4.61997 2.55901,-6.65499 8.36858,-6.65499 13.48489,0 24.91401,15.94144 19.21384,26.79966 -2.41105,4.5928 -8.71082,9.79946 -17.66461,14.5995 l -8.5822,4.60084 -10.4178,-0.0305 c -10.36679,-0.0303 -10.44429,-0.0487 -15.82546,-3.75 z M 494.3894,466.40665 c -3.025,-1.41858 -8.425,-3.0382 -12,-3.59915 -7.79068,-1.22245 -10,-2.26394 -10,-4.71412 0,-3.57469 14.91783,-8.08796 26.73332,-8.08796 7.20321,0 10.9053,2.03166 12.19172,6.69067 1.39576,5.05503 0.45244,7.91291 -3.39716,10.2921 -4.28043,2.64545 -6.88538,2.53347 -13.52788,-0.58154 z m -263.5,-13.50708 c -3.26262,-1.86426 -4.5,-4.05485 -4.5,-7.96659 0,-3.02853 0.61559,-4.15971 3.43328,-6.30887 3.19133,-2.43415 4.1603,-2.61858 13.75,-2.61714 8.3799,10e-4 10.9738,0.36893 13.81672,1.95843 1.925,1.07627 4.2875,2.25306 5.25,2.61507 3.85041,1.44822 1.06436,4.56171 -5.28282,5.90372 -1.90695,0.40319 -6.4273,2.01772 -10.04522,3.58784 -7.82358,3.39531 -13.66738,4.40149 -16.42196,2.82754 z m 232.86077,-14.39639 c -2.45718,-6.40331 15.0604,-25.9481 24.36247,-27.18179 4.95949,-0.65775 8.29357,2.65354 9.00222,8.94069 0.59533,5.28171 -0.65777,6.83882 -7.45721,9.26634 -2.62254,0.93629 -8.97086,3.67665 -14.10738,6.08968 -10.38727,4.87971 -10.97916,5.02443 -11.8001,2.88508 z M 278.3894,433.32053 c -7.81482,-2.86552 -25.86989,-10.87402 -27.25,-12.087 -4.61533,-4.05644 0.43405,-14.22811 7.06307,-14.22811 5.31004,0 17.85105,10.5374 21.86277,18.36988 0.88178,1.72157 2.03471,3.40904 2.56209,3.74995 0.52737,0.3409 0.79691,1.46073 0.59898,2.48851 -0.3771,1.95811 -2.30051,2.63681 -4.83691,1.70677 z"
       id="path2996"
       inkscape:connector-curvature="0" />
  </g>
</svg>
