<?xml version="1.0" encoding="UTF-8" standalone="no"?>
<!-- Created with Inkscape (http://www.inkscape.org/) -->

<svg
   xmlns:dc="http://purl.org/dc/elements/1.1/"
   xmlns:cc="http://creativecommons.org/ns#"
   xmlns:rdf="http://www.w3.org/1999/02/22-rdf-syntax-ns#"
   xmlns:svg="http://www.w3.org/2000/svg"
   xmlns="http://www.w3.org/2000/svg"
   xmlns:sodipodi="http://sodipodi.sourceforge.net/DTD/sodipodi-0.dtd"
   xmlns:inkscape="http://www.inkscape.org/namespaces/inkscape"
   width="175"
   height="175"
   id="svg3066"
   version="1.1"
   inkscape:version="0.48.2 r9819"
   sodipodi:docname="github_open.svg">
  <defs
     id="defs3068" />
  <sodipodi:namedview
     id="base"
     pagecolor="#ffffff"
     bordercolor="#666666"
     borderopacity="1.0"
     inkscape:pageopacity="0"
     inkscape:pageshadow="2"
     inkscape:zoom="1.979899"
     inkscape:cx="-27.005897"
     inkscape:cy="112.24828"
     inkscape:document-units="px"
     inkscape:current-layer="layer1"
     showgrid="false"
     fit-margin-top="0"
     fit-margin-left="0"
     fit-margin-right="0"
     fit-margin-bottom="0"
     inkscape:window-width="1920"
     inkscape:window-height="960"
     inkscape:window-x="0"
     inkscape:window-y="0"
     inkscape:window-maximized="1" />
  <metadata
     id="metadata3071">
    <rdf:RDF>
      <cc:Work
         rdf:about="">
        <dc:format>image/svg+xml</dc:format>
        <dc:type
           rdf:resource="http://purl.org/dc/dcmitype/StillImage" />
        <dc:title></dc:title>
      </cc:Work>
    </rdf:RDF>
  </metadata>
  <g
     inkscape:label="Layer 1"
     inkscape:groupmode="layer"
     id="layer1"
     transform="translate(-249.8577,-194.10319)">
    <path
       style="fill:#c87137"
       d="m 307.28024,340.98766 c -24.04568,-4.62613 -36.82334,-15.19032 -43.06733,-35.60677 -1.87461,-6.12956 -2.29106,-9.78406 -2.27913,-20 0.0164,-14.01275 1.52303,-19.50727 7.98037,-29.10283 3.27232,-4.86265 3.36775,-5.26193 2.28514,-9.56134 -1.4267,-5.66596 -0.58859,-18.64275 1.5318,-23.71757 l 1.60711,-3.84636 4.73128,0.7095 c 5.97759,0.89639 15.22872,4.61292 22.07127,8.86684 l 5.2958,3.29233 6.7042,-1.52131 c 9.19658,-2.08686 37.27064,-2.06755 46.28187,0.0318 l 6.57767,1.53244 6.33614,-3.83121 c 8.07378,-4.88189 15.93068,-7.81946 21.71202,-8.11776 4.46666,-0.23048 4.57095,-0.1648 5.97909,3.76543 2.11411,5.90065 2.77058,16.44251 1.38388,22.22293 -1.19486,4.98074 -1.1821,5.03069 2.89783,11.34314 5.9441,9.19666 7.54844,15.30357 7.46989,28.43393 -0.17483,29.22362 -13.35095,47.21816 -39.14672,53.46242 -4.28311,1.03679 -9.52978,2.17507 -11.65926,2.52949 l -3.87179,0.64441 c -22.49607,2.65674 -34.18152,1.68912 -50.82113,-1.52951 z"
       id="path3866"
       inkscape:connector-curvature="0"
       sodipodi:nodetypes="cssssscsscsscsssssssscc" />
    <g
       id="g3045"
       transform="matrix(1.4211597,0,0,1.4211597,175.52684,141.38366)">
	
	
	
<path
   id="path5256"
   d="M 95.094019,86.987191 C 87.563091,85.56217 83.26071,99.486449 89.036993,106.5964 c 2.744265,3.37306 5.179703,3.9264 8.225768,1.87982 2.821459,-1.90255 4.351509,-5.45753 4.351509,-10.06611 0,-6.147307 -2.589845,-10.664937 -6.520251,-11.422919 z"
   inkscape:connector-curvature="0"
   style="fill:#ffffff;fill-opacity:1;stroke:none"
   sodipodi:nodetypes="cccsc" />
<path
   sodipodi:nodetypes="cccsc"
   style="fill:#ffffff;fill-opacity:1;stroke:none"
   inkscape:connector-curvature="0"
   d="m 134.98424,87.697986 c -7.53092,-1.425021 -11.83331,12.499254 -6.05702,19.609204 2.74426,3.37306 5.1797,3.9264 8.22577,1.87982 2.82145,-1.90255 4.35151,-5.45753 4.35151,-10.066105 0,-6.147307 -2.58985,-10.664937 -6.52026,-11.422919 z"
   id="path4012" />
</g>
  </g>
</svg>
